<svg width="75" height="32" viewBox="0 0 75 32" fill="none" xmlns="http://www.w3.org/2000/svg">
<path d="M8.6 31.16C7.128 31.16 5.79467 30.7973 4.6 30.072C3.42667 29.3467 2.49867 28.3013 1.816 26.936C1.13333 25.5493 0.792 23.9173 0.792 22.04C0.792 18.7973 1.48533 15.8 2.872 13.048C4.25867 10.2747 6.30667 8.056 9.016 6.392C11.7253 4.70667 14.9787 3.864 18.776 3.864C19.7573 3.864 20.8027 3.93867 21.912 4.088C23.0427 4.23733 24.0667 4.46133 24.984 4.76C25.5813 4.93067 25.88 5.35733 25.88 6.04C25.88 6.59467 25.6667 7.11733 25.24 7.608C24.8347 8.09867 24.3547 8.344 23.8 8.344C23.6293 8.344 23.5013 8.33333 23.416 8.312C22.3067 8.056 21.3573 7.87467 20.568 7.768C19.7787 7.64 18.9467 7.576 18.072 7.576C15.3627 7.576 13.0587 8.23733 11.16 9.56C9.26133 10.8613 7.84267 12.5893 6.904 14.744C5.96533 16.8987 5.496 19.224 5.496 21.72C5.496 23.5333 5.848 24.9413 6.552 25.944C7.27733 26.9253 8.216 27.416 9.368 27.416C10.6693 27.416 11.8107 26.8827 12.792 25.816C13.7733 24.7493 14.6693 23.0213 15.48 20.632C16.2907 18.2427 17.0907 15 17.88 10.904C18.008 10.3067 18.264 9.90133 18.648 9.688C19.032 9.47467 19.544 9.368 20.184 9.368C21.6987 9.368 22.456 9.85866 22.456 10.84C22.456 11.0107 22.424 11.224 22.36 11.48C21.8053 13.5493 21.2933 15.8427 20.824 18.36C20.376 20.856 20.152 22.7547 20.152 24.056C20.152 25.208 20.3227 26.0507 20.664 26.584C21.0053 27.096 21.528 27.352 22.232 27.352C22.9147 27.352 23.5653 27.128 24.184 26.68C24.8027 26.2107 25.5813 25.4213 26.52 24.312C26.776 24.0133 27.064 23.864 27.384 23.864C27.6613 23.864 27.8747 23.992 28.024 24.248C28.1947 24.504 28.28 24.856 28.28 25.304C28.28 26.136 28.0773 26.7973 27.672 27.288C26.6267 28.5467 25.6027 29.5067 24.6 30.168C23.5973 30.8293 22.3707 31.16 20.92 31.16C19.4267 31.16 18.2213 30.7333 17.304 29.88C16.3867 29.0053 15.8107 27.7787 15.576 26.2C13.9973 29.5067 11.672 31.16 8.6 31.16ZM39.9643 23.864C40.2416 23.864 40.4549 23.992 40.6042 24.248C40.7749 24.504 40.8603 24.856 40.8603 25.304C40.8603 26.1573 40.6576 26.8187 40.2523 27.288C39.3349 28.4187 38.3323 29.3467 37.2443 30.072C36.1563 30.7973 34.9083 31.16 33.5003 31.16C29.1483 31.16 26.9723 28.0987 26.9723 21.976C26.9723 21.0373 27.0043 20.088 27.0683 19.128H25.8203C25.1803 19.128 24.7429 19.0107 24.5083 18.776C24.2949 18.5413 24.1883 18.168 24.1883 17.656C24.1883 16.4613 24.6683 15.864 25.6283 15.864H27.4523C27.8149 13.5173 28.3696 11.3733 29.1163 9.432C29.8629 7.49067 30.7589 5.944 31.8043 4.792C32.8709 3.64 34.0123 3.064 35.2283 3.064C36.1243 3.064 36.8283 3.45867 37.3403 4.248C37.8523 5.03733 38.1083 6.02933 38.1083 7.224C38.1083 10.5307 36.7216 13.4107 33.9483 15.864H37.5323C37.8736 15.864 38.1189 15.9387 38.2683 16.088C38.4176 16.2373 38.4923 16.5147 38.4923 16.92C38.4923 18.392 37.2869 19.128 34.8763 19.128H30.9723C30.9296 20.1947 30.9083 21.0267 30.9083 21.624C30.9083 23.8427 31.1643 25.4 31.6763 26.296C32.2096 27.192 33.0416 27.64 34.1723 27.64C35.0896 27.64 35.9003 27.3627 36.6043 26.808C37.3083 26.2533 38.1403 25.4213 39.1003 24.312C39.3563 24.0133 39.6443 23.864 39.9643 23.864ZM34.3643 6.136C34.0443 6.136 33.6816 6.54133 33.2763 7.352C32.8923 8.14133 32.5189 9.25067 32.1562 10.68C31.8149 12.088 31.5269 13.656 31.2923 15.384C32.5509 14.296 33.4896 13.08 34.1083 11.736C34.7483 10.3707 35.0683 9.13333 35.0683 8.024C35.0683 6.76533 34.8336 6.136 34.3643 6.136ZM50.3828 23.864C50.6601 23.864 50.8734 23.992 51.0228 24.248C51.1934 24.504 51.2788 24.856 51.2788 25.304C51.2788 26.1573 51.0761 26.8187 50.6708 27.288C49.7534 28.4187 48.7508 29.3467 47.6628 30.072C46.5961 30.7973 45.3801 31.16 44.0148 31.16C42.1374 31.16 40.7401 30.3067 39.8228 28.6C38.9268 26.8933 38.4788 24.6853 38.4788 21.976C38.4788 19.3733 38.8094 16.408 39.4708 13.08C40.1534 9.752 41.1454 6.89333 42.4468 4.504C43.7694 2.11466 45.3374 0.919998 47.1508 0.919998C48.1748 0.919998 48.9748 1.4 49.5508 2.36C50.1481 3.29867 50.4468 4.65333 50.4468 6.424C50.4468 8.96267 49.7428 11.9067 48.3348 15.256C46.9268 18.6053 45.0174 21.9227 42.6068 25.208C42.7561 26.0827 43.0014 26.712 43.3428 27.096C43.6841 27.4587 44.1321 27.64 44.6868 27.64C45.5614 27.64 46.3294 27.3947 46.9908 26.904C47.6521 26.392 48.4948 25.528 49.5188 24.312C49.7748 24.0133 50.0628 23.864 50.3828 23.864ZM46.4468 4.088C45.9561 4.088 45.4014 4.97333 44.7828 6.744C44.1641 8.51467 43.6201 10.712 43.1508 13.336C42.6814 15.96 42.4254 18.4773 42.3828 20.888C43.8974 18.392 45.1028 15.896 45.9988 13.4C46.8948 10.8827 47.3428 8.58933 47.3428 6.52C47.3428 4.89867 47.0441 4.088 46.4468 4.088ZM52.3158 31.16C50.9931 31.16 49.9371 30.68 49.1478 29.72C48.3584 28.76 47.9638 27.5013 47.9638 25.944C47.9638 24.2373 48.3584 22.6267 49.1478 21.112C49.9371 19.576 50.9824 18.3493 52.2838 17.432C53.6064 16.4933 55.0038 16.024 56.4758 16.024C56.9451 16.024 57.2544 16.12 57.4038 16.312C57.5744 16.4827 57.7131 16.8027 57.8198 17.272C58.2678 17.1867 58.7371 17.144 59.2278 17.144C60.2731 17.144 60.7958 17.5173 60.7958 18.264C60.7958 18.712 60.6358 19.7787 60.3158 21.464C59.8251 23.9173 59.5798 25.624 59.5798 26.584C59.5798 26.904 59.6544 27.16 59.8038 27.352C59.9744 27.544 60.1878 27.64 60.4438 27.64C60.8491 27.64 61.3398 27.384 61.9158 26.872C62.4918 26.3387 63.2704 25.4853 64.2518 24.312C64.5078 24.0133 64.7958 23.864 65.1158 23.864C65.3931 23.864 65.6064 23.992 65.7558 24.248C65.9264 24.504 66.0118 24.856 66.0118 25.304C66.0118 26.1573 65.8091 26.8187 65.4038 27.288C64.5291 28.376 63.6011 29.2933 62.6198 30.04C61.6384 30.7867 60.6891 31.16 59.7718 31.16C59.0678 31.16 58.4171 30.9253 57.8198 30.456C57.2438 29.9653 56.8064 29.304 56.5078 28.472C55.3984 30.264 54.0011 31.16 52.3158 31.16ZM53.4678 27.928C53.9371 27.928 54.3851 27.6507 54.8118 27.096C55.2384 26.5413 55.5478 25.8053 55.7398 24.888L56.9238 19C56.0278 19.0213 55.1958 19.3627 54.4278 20.024C53.6811 20.664 53.0838 21.5173 52.6358 22.584C52.1878 23.6507 51.9638 24.7813 51.9638 25.976C51.9638 26.6373 52.0918 27.128 52.3478 27.448C52.6251 27.768 52.9984 27.928 53.4678 27.928ZM69.363 31.864C68.2537 31.864 67.4003 31.608 66.803 31.096C66.227 30.584 65.939 30.008 65.939 29.368C65.939 28.8133 66.1417 28.3333 66.547 27.928C66.9523 27.5227 67.5497 27.32 68.339 27.32C68.6163 27.32 68.9363 27.352 69.299 27.416C69.683 27.4587 69.971 27.4907 70.163 27.512C70.1417 26.9573 70.0137 26.4347 69.779 25.944C69.5657 25.4533 69.2883 24.984 68.947 24.536C68.6057 24.0667 68.2857 23.6613 67.987 23.32C67.3257 24.5787 66.6643 25.624 66.003 26.456C65.363 27.288 64.659 28.0773 63.891 28.824C63.507 29.208 63.1017 29.4 62.675 29.4C62.3337 29.4 62.0563 29.2827 61.843 29.048C61.6297 28.792 61.523 28.4827 61.523 28.12C61.523 27.6933 61.6723 27.2987 61.971 26.936L62.387 26.424C63.5603 24.9733 64.4457 23.7787 65.043 22.84C65.427 22.2213 65.811 21.4853 66.195 20.632C66.6003 19.7787 67.123 18.616 67.763 17.144C68.1683 16.2053 69.011 15.736 70.291 15.736C70.8883 15.736 71.3043 15.7893 71.539 15.896C71.7737 16.0027 71.891 16.1733 71.891 16.408C71.891 16.536 71.8483 16.7387 71.763 17.016C71.6777 17.2933 71.5603 17.5707 71.411 17.848C71.027 18.616 70.835 19.2667 70.835 19.8C70.835 20.12 70.9417 20.472 71.155 20.856C71.3897 21.24 71.7417 21.72 72.211 22.296C72.8937 23.192 73.4057 23.96 73.747 24.6C74.1097 25.2187 74.291 25.9013 74.291 26.648C74.291 27.544 74.0777 28.3973 73.651 29.208C73.2457 29.9973 72.6697 30.6373 71.923 31.128C71.1763 31.6187 70.323 31.864 69.363 31.864Z" fill="#109CF1"/>
</svg>
